PathFileType	4	(X/Y/Z)	5_coords_data.trc
DataRate	CameraRate	NumFrames	NumMarkers	Units	OrigDataRate	OrigDataStartFrame	OrigNumFrames
30.0	30.0	8	21	m	30.0	42	62
Frame#	Time	THUMB_TIP	THUMB_IP	THUMB_MCP	THUMB_CMC	INDEX_TIP	INDEX_DIP	INDEX_PIP	INDEX_MCP	MIDDLE_TIP	MIDDLE_DIP	MIDDLE_PIP	MIDDLE_MCP	RING_TIP	RING_DIP	RING_PIP	RING_MCP	PINKY_TIP	PINKY_DIP	PINKY_PIP	PINKY_MCP	WRIST
X1	Y1	Z1	X2	Y2	Z2	X3	Y3	Z3	X4	Y4	Z4	X5	Y5	Z5	X6	Y6	Z6	X7	Y7	Z7	X8	Y8	Z8	X9	Y9	Z9	X10	Y10	Z10	X11	Y11	Z11	X12	Y12	Z12	X13	Y13	Z13	X14	Y14	Z14	X15	Y15	Z15	X16	Y16	Z16	X17	Y17	Z17	X18	Y18	Z18	X19	Y19	Z19	X20	Y20	Z20	X21	Y21	Z21
41	1.3666666666666667	-0.03972109985351562	-0.18885499572753905	1.0186599731445312	-0.03569490051269531	-0.1629830017089844	1.021219970703125	-0.04104339981079102	-0.13907699584960936	1.0384200439453124	-0.03901190185546875	-0.1044290008544922	1.0464100341796876	-0.014518899917602539	-0.12175599670410156	1.0029600219726562	-0.014962200164794923	-0.12433999633789063	0.9834390258789063	-0.03133790016174316	-0.1272229995727539	0.9679199829101562	-0.06126129913330078	-0.12019200134277344	0.9949000244140624	-0.016015499114990235	-0.10405899810791015	1.006219970703125	-0.01056410026550293	-0.10473100280761719	0.9863070068359375	-0.0291117000579834	-0.10672200012207031	0.9656649780273437	-0.06297769927978515	-0.10038999938964843	0.9894869995117187	-0.0179783992767334	-0.08607060241699219	1.00822998046875	-0.012027700424194336	-0.0850031967163086	0.988719970703125	-0.02782469940185547	-0.08300489807128907	0.9673660278320313	-0.06067829895019531	-0.08134449768066407	0.990156005859375	-0.018100900650024412	-0.0721052017211914	1.0046400146484376	-0.013048399925231933	-0.07011280059814454	0.9877570190429688	-0.02685350036621094	-0.06716909790039062	0.9761669921875	-0.05196030044555664	-0.06359429931640626	0.9919819946289062	-0.05106169891357422	-0.07328579711914063	1.059030029296875
42	1.4	-0.03995610046386719	-0.18731100463867187	1.0174500122070314	-0.035981998443603516	-0.16159300231933593	1.0205599975585937	-0.041661998748779294	-0.13828599548339843	1.0380899658203124	-0.039390899658203124	-0.10397499847412109	1.04702001953125	-0.006771399974822998	-0.12449199676513673	0.9940960083007813	-0.0138149995803833	-0.1255260009765625	0.975885986328125	-0.03308890151977539	-0.12609400177001953	0.9643660278320313	-0.059874298095703125	-0.11895899963378906	0.99468798828125	-0.0054759202003479	-0.10528099822998047	0.9977349853515625	-0.007477950096130371	-0.1059229965209961	0.9772230224609375	-0.030145999908447265	-0.10606900024414062	0.9615479736328125	-0.06130289840698242	-0.09877210235595703	0.9894990234375	-0.007380809783935547	-0.08639330291748047	0.9985679931640625	-0.008582770347595215	-0.0846270980834961	0.9787540283203126	-0.02925349998474121	-0.08193419647216797	0.9626119995117187	-0.05823789978027344	-0.07977290344238282	0.9902080078125	-0.009591259956359864	-0.0721510009765625	0.9926400146484375	-0.012839099884033204	-0.0686531982421875	0.9768480224609375	-0.02929789924621582	-0.06541470336914063	0.970614013671875	-0.04928329849243164	-0.062206199645996094	0.9925670166015625	-0.05164929962158203	-0.07236409759521484	1.0598199462890625
43	1.4333333333333333	-0.03978250122070313	-0.18476699829101562	1.014719970703125	-0.03569779968261719	-0.15934700012207031	1.019469970703125	-0.042159698486328126	-0.13728900146484374	1.0379200439453125	-0.039871700286865236	-0.10328399658203125	1.0478599853515624	-0.0005444949865341181	-0.1276240005493164	0.9830889892578125	-0.013293999671936035	-0.12721499633789063	0.9682689819335938	-0.03477859878540039	-0.1255749969482422	0.9617979736328125	-0.057565601348876956	-0.11833300018310547	0.99460400390625	0.004844029903411865	-0.10796900177001953	0.9848880004882813	-0.005073949813842773	-0.10751999664306641	0.9675570068359375	-0.031266199111938474	-0.10568199920654296	0.9579290161132813	-0.05861629867553711	-0.0978395004272461	0.9892940063476563	0.002580950021743774	-0.08749819946289063	0.9844710083007813	-0.007069270133972168	-0.08513590240478516	0.9676699829101563	-0.031460599899291994	-0.08191729736328125	0.95835400390625	-0.055110401153564456	-0.07916049957275391	0.990260009765625	-0.004424789905548096	-0.07188030242919922	0.9766060180664062	-0.015408599853515625	-0.0677511978149414	0.9659299926757813	-0.03295180130004883	-0.06473739624023438	0.9664310302734375	-0.04589569854736328	-0.06166519927978516	0.9926630249023437	-0.05253350067138672	-0.07127140045166015	1.0608800048828124
44	1.4666666666666666	-0.038386398315429685	-0.181947998046875	1.0118900146484375	-0.03464849853515625	-0.15683099365234374	1.0183800048828124	-0.04180970001220703	-0.1361580047607422	1.038010009765625	-0.03974610137939453	-0.10255799865722656	1.0483699951171874	0.002751729965209961	-0.12878700256347655	0.9712899780273437	-0.014255999565124512	-0.12677100372314454	0.9611900024414063	-0.03652719879150391	-0.12402400207519532	0.95993798828125	-0.05544879913330078	-0.11749800109863281	0.9946309814453125	0.011247200012207031	-0.1092249984741211	0.97110302734375	-0.004723740100860596	-0.10714600372314453	0.9586019897460938	-0.03249089813232422	-0.10405699920654297	0.9556719970703125	-0.056701301574707035	-0.09682319641113281	0.9894249877929687	0.007859660148620605	-0.08692009735107421	0.97156298828125	-0.007395299911499023	-0.08380940246582032	0.9590859985351563	-0.03335910034179688	-0.08071769714355469	0.9566010131835937	-0.053258899688720704	-0.07830390167236329	0.9908060302734375	-0.0035847499370574953	-0.07000440216064453	0.9648729858398437	-0.01883209991455078	-0.06526170349121094	0.9603369750976563	-0.03523419952392578	-0.06265810012817383	0.966052978515625	-0.044251598358154294	-0.06100260162353516	0.9933489990234375	-0.053039600372314456	-0.07079540252685547	1.0615999755859375
45	1.5	-0.03736180114746094	-0.17932000732421874	1.0095999755859375	-0.033950599670410156	-0.15461399841308593	1.01747998046875	-0.04168519973754883	-0.13501800537109376	1.03806005859375	-0.03969559860229492	-0.10170099639892578	1.049	0.003709549903869629	-0.12836399841308593	0.9593800048828125	-0.01608180046081543	-0.12532099914550782	0.954947021484375	-0.03796269989013672	-0.12196600341796875	0.9587150268554687	-0.05386949920654297	-0.11645099639892578	0.9947620239257813	0.01417710018157959	-0.10883799743652343	0.9578670043945312	-0.005561009883880615	-0.10566200256347656	0.9512160034179687	-0.03344889831542969	-0.10178800201416016	0.954572998046875	-0.05522719955444336	-0.09570339965820313	0.989593994140625	0.009839090347290039	-0.08531459808349609	0.958666015625	-0.0093677396774292	-0.08182319641113281	0.9521710205078125	-0.0350182991027832	-0.07897660064697265	0.9559149780273437	-0.0519281005859375	-0.07723870086669922	0.9912949829101563	-0.003711349964141845	-0.06679299926757812	0.9560490112304687	-0.02037649917602539	-0.06211840057373047	0.957583984375	-0.03535559844970703	-0.060203601837158206	0.9668170166015625	-0.04320959854125977	-0.05996820068359375	0.9942050170898438	-0.05343209838867188	-0.07015239715576171	1.062550048828125
46	1.5333333333333334	-0.03640399932861328	-0.1767480010986328	1.007719970703125	-0.03318069839477539	-0.15252000427246093	1.0168599853515625	-0.04127370071411133	-0.1337760009765625	1.03831005859375	-0.03964139938354492	-0.10076300048828125	1.0500400390625	0.003363990068435669	-0.12695800018310546	0.94972998046875	-0.01728339958190918	-0.12356300354003906	0.9507050170898438	-0.03811209869384766	-0.12012100219726562	0.9585819702148437	-0.05189630126953125	-0.11537699890136718	0.9946170043945313	0.014760100364685058	-0.10733899688720704	0.94502197265625	-0.00673153018951416	-0.10374400329589843	0.945239990234375	-0.03353239822387695	-0.09985150146484376	0.9540289916992187	-0.05314830017089844	-0.09463529968261719	0.9898590087890625	0.009522370338439941	-0.08362020111083984	0.9470750122070313	-0.011146699905395508	-0.08008300018310546	0.947093994140625	-0.03557830047607422	-0.07741709899902344	0.9557630004882812	-0.05007960128784179	-0.07629769897460938	0.9918670043945312	-0.0047225899696350096	-0.06311880111694336	0.9494959716796875	-0.02105739974975586	-0.05925799942016602	0.9563660278320313	-0.03448630142211914	-0.05816770172119141	0.9680850219726562	-0.041984600067138673	-0.05924789810180664	0.9953480224609375	-0.05380329895019531	-0.06940619659423829	1.0635400390625
47	1.5666666666666667	-0.03403010177612305	-0.17469700622558593	1.0073599853515625	-0.031300399780273436	-0.15076300048828126	1.0171400146484375	-0.04016609954833984	-0.1326199951171875	1.0391600341796876	-0.039159400939941406	-0.099910400390625	1.0510999755859376	0.002491909980773926	-0.1255479965209961	0.943260009765625	-0.017912599563598634	-0.1222750015258789	0.9482940063476563	-0.03765449905395508	-0.11906900024414062	0.9591400146484375	-0.049827899932861325	-0.11458200073242188	0.9952830200195313	0.01301799964904785	-0.10550599670410156	0.9350700073242187	-0.008289210319519043	-0.10224199676513672	0.9407579956054688	-0.033429000854492186	-0.09871320343017578	0.95402099609375	-0.05079990005493164	-0.09401599884033203	0.9904240112304687	0.007144289970397949	-0.08212049865722656	0.9374390258789063	-0.013199399948120118	-0.07875019836425781	0.9431619873046875	-0.03579410171508789	-0.07641280364990234	0.9563259887695312	-0.047881900787353514	-0.07573069763183594	0.9924000244140625	-0.006795460224151611	-0.058886600494384767	0.9443419799804688	-0.021699300765991213	-0.05654019927978516	0.9556270141601563	-0.033390701293945314	-0.05648590087890625	0.969458984375	-0.040315200805664066	-0.05870349884033203	0.9962449951171874	-0.05378739929199219	-0.06873970031738282	1.064550048828125
48	1.6	-0.03217490005493164	-0.17368699645996094	1.0088200073242188	-0.02959320068359375	-0.1496269989013672	1.0188200073242188	-0.03910329818725586	-0.13164100646972657	1.0405699462890625	-0.038582099914550784	-0.09897059631347656	1.052469970703125	0.000803205013275146	-0.12402200317382812	0.9379459838867188	-0.018682300567626955	-0.12116200256347656	0.94672900390625	-0.03689780044555664	-0.11828099822998046	0.9601959838867188	-0.04803770065307617	-0.11395899963378907	0.9963079833984375	0.010215999603271485	-0.10313099670410156	0.9275029907226563	-0.009766280174255371	-0.10056999969482422	0.9379080200195312	-0.03302450180053711	-0.09762490081787109	0.9548359985351562	-0.04877310180664062	-0.093402099609375	0.9913359985351563	0.003779099941253662	-0.08011100006103515	0.9304630126953125	-0.01522659969329834	-0.07720909881591796	0.9406959838867187	-0.035764801025390626	-0.07532479858398437	0.9571719970703125	-0.046361900329589846	-0.07521109771728515	0.99352099609375	-0.00994264030456543	-0.054861000061035156	0.9411409912109375	-0.022858600616455078	-0.054053001403808594	0.9556619873046875	-0.032904201507568356	-0.05497919845581055	0.9708200073242188	-0.03915200042724609	-0.05818629837036133	0.9971929931640625	-0.05378680038452149	-0.06788729858398437	1.065719970703125
